<svg width="17" height="17" viewBox="0 0 17 17" fill="none" xmlns="http://www.w3.org/2000/svg">
<path d="M9.56551 8.28392L15.2862 2.56301C15.5225 2.33476 15.6173 1.99676 15.5341 1.67891C15.4509 1.36107 15.2027 1.11285 14.8848 1.02965C14.567 0.946455 14.229 1.04123 14.0007 1.27756L8.27983 6.99824L2.55915 1.27756C2.20304 0.929273 1.63298 0.932413 1.28073 1.2846C0.928484 1.63678 0.925244 2.20685 1.27346 2.56301L6.99437 8.28392L1.27346 14.0048C1.03954 14.2336 0.94661 14.5705 1.03015 14.8868C1.11368 15.2032 1.36079 15.4503 1.67718 15.5338C1.99356 15.6172 2.3304 15.5243 2.55915 15.2903L8.27983 9.5696L14.0007 15.2903C14.1782 15.4678 14.411 15.5566 14.6435 15.5566C14.876 15.5566 15.1089 15.4678 15.2862 15.2903C15.6411 14.9353 15.6411 14.3598 15.2862 14.0048L9.56551 8.28392Z" fill="white" stroke="white"/>
</svg>
